<svg xmlns="http://www.w3.org/2000/svg" width="40" height="45" fill="none"><path fill="#F79A1E" d="M21.179 36.726a2.231 2.231 0 0 1-.282.006c-.042-.015-.053-.014-.065-.009-.35-.036-.529-.262-.646-.605-.01-.352-.034-.67-.006-.984.054-.595.215-1.158.638-1.61.139-.149.294-.282.455-.435-.276-.023-.53-.05-.785-.066-.487-.032-.934-.141-1.27-.54a4.685 4.685 0 0 0-.55-.548c-.08-.067-.208-.076-.314-.111-.02.103-.085.23-.048.306.177.368.38.724.578 1.081.067.122.146.236.22.353l-.046.048c-.059-.031-.121-.057-.175-.095-.331-.228-.684-.433-.986-.695-.588-.51-1.152-1.051-1.72-1.587-.175-.166-.318-.365-.492-.533-.183-.176-.328-.15-.48.049-.238.311-.348.665-.387 1.05-.008.087-.089.166-.136.248-.325-.22-.664-.424-.972-.667-.399-.316-.774-.662-1.156-.999a3.062 3.062 0 0 0-1.524-.748c-.333-.058-.658-.163-1.005-.274-.157-.09-.288-.18-.432-.212-.356-.08-.583-.34-.741-.616-.267-.466-.538-.954-.672-1.468a23.497 23.497 0 0 0-1.143-3.362c-.296-.69-.45-1.395-.382-2.145.015-.16.037-.32.045-.481.035-.669.064-1.338.098-2.007.048-.918.1-1.836.145-2.754.039-.798.064-1.597.108-2.395.005-.102.086-.2.14-.286.27.467.458.472.758.031.075-.11.142-.226.252-.403.113.341.245.615.29.903.093.606.133 1.22.209 1.829.073.59.237 1.151.701 1.559.535.47 1.244.606 1.866.909.14.067.207-.052.196-.189-.02-.245-.049-.49-.077-.77.088.064.147.122.217.155.309.149.61.349.936.419.37.078.518-.149.417-.517l-.1-.358c.355.131.65.261.959.346.147.04.318-.003.478-.009-.033-.15-.047-.308-.103-.45-.08-.203-.192-.394-.29-.59l.065-.075c.109.048.226.082.325.145.224.145.43.319.659.453.218.128.338.066.37-.182.02-.165-.018-.338 0-.504.016-.151.074-.298.113-.447.138.048.277.092.413.144.067.025.129.064.192.097l.055-.05c-.046-.116-.085-.235-.141-.346-.112-.222-.233-.44-.349-.66 0 0 .002-.002.019.004l.3.132c-.031-.155-.039-.25-.07-.336-.05-.137-.123-.265-.174-.401-.082-.223-.02-.304.219-.275.135.017.267.082.401.084.106 0 .277-.034.306-.103.144-.326.374-.355.68-.288.134.03.34.045.415-.031.158-.16.325-.17.508-.142.328.049.565-.084.753-.336 1.753.218 3.487.038 5.25-.23.237.066.442.112.642.173 1.112.337 2.146.818 2.935 1.704.455.512.879 1.05 1.326 1.57.056.064.17.115.256.112.426-.015.851-.08 1.276-.073.591.01 1.09.265 1.473.718.195.23.37.48.555.722.152-.113.29-.24.451-.326.116-.062.26-.07.393-.103-.046.145-.09.29-.137.433-.002.007-.013.01-.036.006-.124-.004-.252-.034-.335.013-.464.259-.906.556-1.375.803-.562.296-1.124.612-1.721.814-1.26.428-2.567.68-3.877.908-.35.061-.737.047-1.007.343a.482.482 0 0 0-.12.261c-.004.034.126.116.196.116.57.003 1.15.053 1.709-.03.762-.113 1.514-.308 2.26-.509.881-.238 1.735-.568 2.496-1.081.492-.332.936-.733 1.4-1.082-.037.184-.066.35-.11.513-.17.634-.448 1.19-1.09 1.479-.233.105-.466.215-.71.326-.025.012-.035.024-.04.04-.002 0-.005.002-.024.002-.28.122-.55.229-.802.368-.755.417-1.49.873-2.257 1.263-.501.255-1.055.345-1.627.236a.629.629 0 0 0-.346.061c-.355.157-.696.347-1.054.496-.924.382-1.868.697-2.89.59-.488-.051-.953-.212-1.165-.703-.19-.44-.522-.562-.952-.613-.742-.088-1.446-.296-1.958-.892-.22-.256-.378-.573-.623-.8-.766-.709-1.706-1.124-2.679-1.46-.131-.046-.382-.03-.435.05-.076.113-.072.342-.006.473.182.366.371.743.635 1.05.477.554.98 1.097 1.53 1.579.705.619 1.48 1.165 2.403 1.417.612.167 1.239.29 1.867.38.445.063.903.064 1.354.048.685-.025 1.368-.09 2.051-.135.081-.005.164.009.245.014.005.021.01.043.013.065-.122.072-.236.174-.369.21-.62.172-1.24.348-1.87.481-.953.202-1.914.366-2.87.556a2.518 2.518 0 0 0-.571.187c-.186.087-.192.21-.023.33.123.087.265.167.41.2.603.142 1.205.295 1.817.386.938.139 1.882.252 2.828.334.997.087 1.915-.21 2.77-.706.82-.477 1.53-1.101 2.249-1.714a4.98 4.98 0 0 1 .834-.574c.363-.199.639-.05.704.353.056.347-.103.653-.272.929-.358.584-.753 1.146-1.128 1.72-.066.1-.121.211-.154.326-.07.241.03.356.271.295.343-.087.69-.175 1.015-.31.982-.407 1.953-.841 2.933-1.255.222-.093.457-.161.692-.212.313-.069.474.085.416.394-.067.348-.13.7-.243 1.035a8.576 8.576 0 0 1-2.637 3.897c-.396.334-.846.577-1.396.5a8.788 8.788 0 0 1-.9-.165c-.407-.102-.612.015-.653.425-.04.408-.05.82-.103 1.228-.05.391-.121.788-.482 1.042a.502.502 0 0 1-.152.023 1.688 1.688 0 0 0-.268.027c-.061.014-.121.028-.218.045-.183.037-.33.071-.497.104-.282.061-.544.123-.807.166.264-1.161.311-1.831.115-2.023-.122.224-.236.441-.36.653-.169.291-.338.583-.525.862-.045.068-.157.09-.238.134-.021-.08-.064-.16-.062-.24.008-.308.03-.617.046-.925l-.059-.024c-.092.136-.194.266-.274.408-.305.54-.575 1.105-.48 1.74.067.457-.104.797-.351 1.134-.045.019-.09.037-.154.057-.02.003-.025.008-.025.008-.032.023-.064.047-.127.082a3.32 3.32 0 0 0-.26.144c-.262.166-.548.242-.817.062-.287-.19-.572-.175-.875-.095Zm-3.16-17.039c1.032.323 2.102.409 3.172.434.757.018 1.517-.045 2.275-.087.708-.04 1.416-.084 2.122-.152.817-.08 1.63-.203 2.446-.28.996-.093 1.96-.298 2.874-.708.242-.108.468-.253.693-.395.049-.03.06-.12.089-.18-.062-.028-.127-.084-.186-.079-.313.027-.629.047-.935.11-1.135.233-2.275.452-3.4.734-.96.24-1.928.386-2.912.407-.88.018-1.763-.023-2.645-.043-.209-.005-.42-.02-.625-.052-.779-.123-1.56-.233-2.331-.392-.654-.136-1.297-.326-1.941-.506-.474-.133-.941-.292-1.412-.435-.169-.051-.497.076-.545.229-.065.21.099.297.252.38.079.041.149.105.231.131.913.292 1.827.579 2.777.884Zm3.398-2.619c-.513-.048-1.03-.074-1.538-.149-1.099-.16-2.192-.356-3.29-.514-.308-.044-.633-.025-.906.213.272.366.665.473 1.02.58 1.082.322 2.179.595 3.318.602.937.006 1.874.01 2.81-.012.242-.006.49-.096.721-.183.093-.036.149-.17.221-.258-.092-.061-.181-.17-.278-.176-.676-.046-1.353-.071-2.078-.103Zm2.812 3.938c.135-.054.286-.085.4-.169.118-.086.2-.223.297-.338-.145-.024-.292-.074-.435-.067-.7.037-1.4.098-2.1.131-.272.013-.547-.019-.82-.043-.538-.049-1.082-.066-1.609-.168-1.043-.203-2.075-.46-3.115-.683-.152-.033-.32-.011-.477.013-.077.012-.189.08-.202.14-.013.06.06.174.126.209.261.142.522.311.805.382.64.16 1.29.285 1.94.392.635.105 1.276.178 1.915.252.408.048.819.07 1.227.11.68.068 1.35.04 2.048-.16Zm-5.385-5.738c-.66-.095-1.32-.196-1.982-.278-.12-.014-.295.01-.363.088-.111.128-.004.376.163.475.042.024.09.038.134.057.9.374 1.864.42 2.814.532.479.056.96.104 1.442.136.49.032.984.055 1.476.053.205 0 .419-.052.611-.126.1-.039.213-.169.226-.27.01-.068-.135-.176-.231-.232a.82.82 0 0 0-.323-.092c-.4-.04-.802-.07-1.204-.099-.354-.025-.71-.034-1.062-.067-.553-.051-1.104-.117-1.7-.177Zm2.027 3.503c.742 0 1.483.008 2.225-.01.097-.003.191-.134.287-.206-.077-.091-.144-.194-.235-.27-.049-.04-.137-.048-.208-.047-1.325.017-2.648-.017-3.957-.25-.76-.134-1.515-.302-2.27-.466-.502-.109-1-.24-1.502-.35-.086-.02-.186.02-.28.033l-.02.082c.121.1.228.23.366.292.354.155.712.318 1.085.409a41.62 41.62 0 0 0 2.526.536c.64.114 1.292.167 1.983.247Zm6.815-.829c-.464.05-.928.105-1.392.15-.69.067-1.38.123-2.067.198-.114.012-.22.098-.33.15.055.101.103.207.169.3.028.04.092.07.143.077.28.037.563.111.838.089.68-.056 1.364-.123 2.035-.25a57.509 57.509 0 0 0 3.041-.67c.34-.083.66-.258.98-.41.072-.034.13-.143.148-.226.007-.038-.096-.115-.162-.147-.297-.142-.596-.104-.893.011-.45.174-.893.375-1.354.515-.36.11-.741.143-1.156.213Zm-7.52 4.418c.371.074.744.14 1.112.226.908.211 1.828.315 2.757.26.305-.019.613-.128.902-.24.214-.083.21-.27.005-.376-.14-.073-.3-.135-.456-.146-.86-.06-1.721-.093-2.58-.156-.537-.04-1.071-.115-1.606-.173-.504-.055-1.007-.114-1.511-.16-.1-.01-.204.033-.306.052l-.009.096c.53.258 1.087.442 1.693.617Zm8.384-4.91c.126-.055.265-.09.374-.168.087-.062.195-.183.184-.265-.01-.082-.146-.163-.242-.215-.065-.035-.158-.03-.237-.025-.796.047-1.592.092-2.388.151a36.4 36.4 0 0 0-1.44.143c-.254.029-.506.077-.806.125.226.262.399.462.691.496.28.031.557.095.837.1a9.19 9.19 0 0 0 1.256-.048c.58-.07 1.156-.188 1.77-.295Zm-4.791-1.314c.356.083.712.228 1.07.238.814.022 1.63-.011 2.445-.044.27-.01.542-.073.804-.145.102-.028.178-.15.266-.228-.083-.086-.153-.225-.252-.25-.34-.086-.69-.18-1.038-.186-.831-.013-1.663.013-2.494.044a3.15 3.15 0 0 0-.73.137c-.238.068-.262.202-.071.434Z"/><path fill="#7E3C21" d="M18.942 13.374c-.171.26-.408.394-.736.345-.183-.028-.35-.019-.508.142-.075.076-.281.06-.415.031-.306-.067-.536-.038-.68.288-.03.069-.2.104-.306.103-.134-.002-.266-.067-.401-.084-.239-.03-.301.052-.219.275.05.136.124.264.174.4.031.087.038.182.07.337a4.497 4.497 0 0 1-.305-.144l-.075-.057-.016.032.076.034c.117.22.238.437.35.66.056.11.095.23.141.345l-.055.05c-.063-.033-.125-.072-.192-.097-.136-.052-.275-.096-.413-.143-.04.148-.097.295-.113.446-.018.166.02.339 0 .504-.033.248-.152.31-.37.182-.23-.134-.435-.308-.66-.453-.098-.063-.215-.097-.324-.145l-.066.075c.099.196.21.387.291.59.056.142.07.3.103.45-.16.006-.33.05-.478.01-.308-.086-.604-.216-.959-.347l.1.358c.101.369-.048.595-.417.517-.327-.07-.627-.27-.936-.419-.07-.033-.129-.09-.217-.155.028.28.056.525.077.77.01.137-.057.256-.196.189-.622-.303-1.33-.439-1.866-.91-.464-.407-.628-.969-.701-1.558-.076-.609-.116-1.223-.21-1.829-.044-.288-.176-.562-.289-.903-.11.177-.177.293-.252.403-.3.44-.487.436-.76-.046-.03-.064-.05-.098-.077-.143l-.149.187c-.283-.187-.465.044-.675.154-.196.103-.386.22-.579.33.08-.886.146-1.772.242-2.655.084-.78.21-1.555.298-2.334.039-.335.061-.68-.123-1.025.14-.077.278-.122.416-.165.412-.129.81-.277 1.078-.648.257-.357.375-.764.444-1.19.127-.778-.119-.876-.651-1.04-.364-.113-.408-.2-.425-.577-.005-.114-.071-.225-.106-.357.057-.257-.04-.375-.275-.427-.334-.075-.596.041-.832.241-.018-.204-.165-.207-.3-.235-.244-.05-.464-.134-.533-.417-.093-.378.28-1.004.666-1.03.411-.027.827.021 1.241.037 1.126.325 2.17.833 3.202 1.381 1.047.557 1.812 1.389 2.48 2.343 1.036 1.479 2.048 2.97 2.884 4.575.666 1.28 1.74 2.106 3.064 2.626.142.055.297.077.463.123ZM5.101 3.178c.064.293.268.434.491.334.177-.08.26-.225.225-.412-.03-.163-.134-.273-.314-.284-.233-.015-.365.095-.402.362Z"/><path fill="#C37829" d="M27.589 34.388c.339-.258.41-.655.46-1.046.054-.407.062-.82.103-1.228.041-.41.246-.527.654-.425.295.073.597.122.9.164.549.078.999-.165 1.395-.499a8.577 8.577 0 0 0 2.637-3.897c.112-.335.176-.687.243-1.035.058-.309-.103-.463-.416-.394-.235.051-.47.119-.692.212-.98.414-1.95.848-2.933 1.255-.326.135-.672.223-1.015.31-.24.061-.34-.054-.271-.295.033-.115.088-.226.154-.326.375-.574.77-1.136 1.128-1.72.169-.276.328-.581.272-.93-.065-.402-.34-.55-.704-.352a4.976 4.976 0 0 0-.834.574c-.719.613-1.43 1.237-2.25 1.713-.854.497-1.772.794-2.77.707a47.193 47.193 0 0 1-2.827-.334c-.612-.09-1.214-.244-1.817-.385a1.233 1.233 0 0 1-.41-.201c-.17-.12-.163-.243.023-.33a2.52 2.52 0 0 1 .572-.187c.955-.19 1.916-.354 2.87-.556.628-.133 1.249-.309 1.87-.48.132-.037.246-.14.368-.211l-.013-.065c-.081-.005-.164-.019-.245-.014-.683.045-1.366.11-2.05.135-.452.016-.91.015-1.355-.049a15.32 15.32 0 0 1-1.867-.379c-.923-.252-1.698-.798-2.404-1.417a15.776 15.776 0 0 1-1.53-1.58c-.263-.306-.452-.683-.634-1.049-.066-.131-.07-.36.005-.473.054-.08.305-.095.436-.05.973.336 1.913.751 2.679 1.46.244.227.403.544.623.8.512.596 1.216.804 1.958.892.43.051.762.174.952.613.212.491.677.652 1.166.703 1.021.107 1.965-.208 2.889-.59.358-.149.7-.338 1.054-.496a.63.63 0 0 1 .346-.061c.572.109 1.126.019 1.627-.236.768-.39 1.502-.846 2.257-1.263.252-.14.522-.246.815-.354.184.029.337.044.49.058.472.042.944.08 1.415.127.367.037.733.087 1.1.128.51.056 1.02.109 1.544.176.187.041.359.07.53.097-.128.677-.052 1.312.325 1.908.18.286.32.6.452.912.201.474.254.979.124 1.475-.215.82-.457 1.633-.712 2.44a1.55 1.55 0 0 1-.725.881c-.404.236-.603.639-.83 1.023-.294.501-.556 1.037-.934 1.47-.427.487-.974.867-1.455 1.309-.473.433-1.055.574-1.659.675-.496.083-.972.214-1.417.47-.192.111-.447.124-.677.152-.321.038-.645.049-.99.068Z"/><path fill="#6D4A31" d="M36.1 21.593a2.393 2.393 0 0 1-.54-.103c.183-.49.387-.945.563-1.41.045-.119-.001-.27-.006-.407-.131.055-.264.107-.393.167-.024.011-.03.057-.052.08-.134.14-.27.276-.404.414l-.089-.067c.192-.35.38-.702.576-1.049.223-.392.49-.764.672-1.174.162-.365.129-.567-.34-.538-.266.017-.53.06-.794.07-.1.004-.204-.053-.306-.082.03-.09.033-.21.094-.268.272-.264.562-.509.842-.765.165-.152.347-.295.477-.474.214-.295.154-.547-.135-.756-.13-.095-.258-.194-.393-.28-.196-.124-.224-.285-.123-.479.053-.1.11-.198.176-.288.267-.365.544-.721.801-1.093.065-.094.067-.232.099-.35-.13-.03-.272-.11-.389-.083A8.844 8.844 0 0 0 35.23 13c-1.157.443-2.154 1.16-3.135 1.9-.45.34-.899.683-1.36 1.008-.141.1-.32.15-.486.208-.165.058-.229-.023-.154-.169.113-.22.216-.458.382-.633.846-.893 1.794-1.671 2.775-2.412.824-.621 1.622-1.277 2.423-1.928.217-.177.408-.388.595-.598.054-.06.094-.194.063-.253-.033-.061-.157-.093-.245-.103a1.045 1.045 0 0 0-.362.013c-1.168.286-2.252.739-3.133 1.593-.069.067-.166.104-.308.189.014-.148.01-.227.03-.299.1-.357.183-.721.313-1.068.28-.743.632-1.45 1.243-1.986.217-.19.466-.34.697-.514.246-.184.275-.316.029-.496-.22-.16-.491-.315-.752-.34-.618-.057-1.238-.017-1.843.175-.653.209-1.301.424-1.882.799-.7.451-1.27 1.042-1.79 1.686-.057.07-.126.128-.189.192.013-.67-.004-1.343.046-2.01.052-.693.218-1.378.245-2.07.024-.623.139-1.216.287-1.815.18-.724.619-1.235 1.241-1.605a4.942 4.942 0 0 1 2.138-.665c.544-.046.779.097 1.175.677.773-.341 1.407-.008 1.937.492.86.81 1.664 1.677 2.488 2.524.298.306.452.665.375 1.106-.01.056.044.151.096.185.433.282.563.667.418 1.155-.057.194-.082.404-.173.58-.226.434-.211.87-.065 1.313.196.596.049 1.168-.111 1.739-.042.151-.095.29.014.437.03.042.037.107.042.163.034.364.138.69.335 1.015.147.244.17.59.171.891.004.517.063 1.012.27 1.491.162.376.101.75-.192 1.033-.307.296-.651.553-.99.814-.103.08-.15.144-.16.287-.043.611-.089 1.225-.184 1.83-.093.593-.458 1.037-.898 1.431-.202.18-.357.412-.545.631Z"/><path fill="#A7652B" d="M28.133 9.98c.07-.08.14-.139.195-.208.52-.644 1.09-1.235 1.79-1.686.582-.375 1.23-.59 1.883-.799.605-.192 1.225-.232 1.843-.174.26.024.532.179.752.34.246.18.217.31-.03.495-.23.173-.48.325-.696.514-.611.536-.963 1.243-1.243 1.986-.13.347-.213.71-.312 1.068-.02.072-.017.151-.03.299.14-.085.239-.122.307-.189.881-.854 1.965-1.307 3.133-1.593.115-.028.243-.027.362-.013.088.01.212.042.245.103.031.059-.01.192-.063.253-.187.21-.378.42-.595.598-.8.651-1.6 1.306-2.423 1.928-.981.741-1.929 1.519-2.775 2.412-.166.175-.27.414-.382.633-.075.146-.011.227.154.17.166-.06.345-.11.486-.209.461-.325.91-.669 1.36-1.008.981-.74 1.977-1.457 3.135-1.9.39-.149.8-.25 1.207-.342.117-.027.258.052.389.083-.032.118-.034.256-.099.35-.257.372-.534.728-.8 1.093-.067.09-.124.189-.177.288-.1.194-.073.355.123.479.135.086.263.185.393.28.29.21.349.461.135.756-.13.18-.312.322-.477.474-.28.256-.57.5-.842.765-.061.059-.064.177-.094.268.102.03.205.086.306.082.265-.01.528-.053.793-.07.47-.03.503.173.34.538-.181.41-.448.782-.67 1.174-.198.347-.385.7-.577 1.05l.089.066c.135-.138.27-.275.404-.414.022-.023.028-.069.052-.08.13-.06.262-.112.393-.167.005.136.051.288.007.406-.177.466-.381.921-.578 1.398a39.182 39.182 0 0 1-1.534-.145c-.367-.04-.732-.091-1.099-.128-.47-.047-.943-.085-1.414-.127a5.564 5.564 0 0 1-.473-.058c-.012-.014-.01-.016.004-.02.026-.012.035-.024.04-.04.233-.107.465-.217.7-.322.64-.289.918-.845 1.09-1.479.043-.162.072-.329.126-.515.136-.197.255-.371.373-.546.007-.004.018-.007.02-.014l.137-.433c-.132.032-.277.04-.393.103-.16.086-.299.213-.451.326-.186-.243-.36-.491-.555-.722-.384-.453-.881-.707-1.473-.718-.425-.007-.85.058-1.276.073a.365.365 0 0 1-.256-.113c-.447-.518-.87-1.057-1.326-1.569-.79-.886-1.823-1.367-2.935-1.704-.2-.06-.405-.107-.622-.17.756-.04 1.328-.442 1.837-.979.657-.691 1.326-1.37 1.989-2.056.032-.033.048-.082.078-.14Z"/><path fill="#ED5041" d="M6.851 2.308c-.416.002-.832-.046-1.243-.019-.386.026-.759.652-.666 1.03.07.283.289.366.534.417.134.028.28.03.286.245-.051.055-.09.08-.129.108l-.276.197c.101.047.202.095.304.14.022.01.046.015.07.02.346.085.682.13.955-.184.041-.048.127-.058.192-.085.039.112.105.223.11.337.017.376.061.464.425.576.532.165.778.263.651 1.041-.069.426-.187.833-.444 1.19-.268.37-.666.52-1.078.648a5.008 5.008 0 0 0-.422.148c-.029.015-.048.013-.085-.01-.15-.265-.24-.552-.426-.748-.416-.44-.876-.836-1.324-1.244-.339-.308-.74-.506-1.182-.64-.032-.106-.062-.191-.093-.296-.037-.114-.048-.239-.115-.3-.201-.182-.425-.34-.64-.508a.176.176 0 0 1-.02-.057c-.07-.202-.323-.374-.002-.544.02-.007.04-.015.086-.011a1.65 1.65 0 0 0 .292-.173c.006-.022.012-.044.036-.093-.002-.162-.022-.298-.042-.433 0 0-.007-.011 0-.034a.712.712 0 0 0-.053-.165.365.365 0 0 1-.015-.137c.03-.173.047-.314.063-.455 0 0 .005.01.018.004a.165.165 0 0 0 .034-.053s.013.005.029.008l.322.006.114.037c.238.08.305.038.275-.214-.025-.224-.099-.442-.121-.665-.011-.108.046-.222.073-.333.097.044.197.083.29.133.08.043.152.098.286.185 0-.263 0-.459.005-.677l.006-.023c.106.085.208.175.32.253.187.13.3.095.35-.128.054-.235.081-.477.131-.787.073.125.12.2.16.276.069.129.122.266.201.387.188.288.397.279.574-.02.053-.09.084-.193.131-.287.042-.082.092-.16.139-.239l.076-.001.24.651.068.016c.12-.25.242-.5.363-.749l.085.014v.766c.226-.108.38-.188.54-.257.3-.13.369-.105.529.17.426.737.253 1.162-.563 1.395-.144.041-.282.101-.424.17Z"/><path fill="#C3782B" d="M5.701 14.169c.2-.132.39-.248.587-.35.21-.11.392-.342.675-.155l.15-.187c.026.045.046.079.068.127-.044.116-.125.215-.13.317-.044.798-.07 1.597-.108 2.395-.044.918-.097 1.836-.145 2.754-.034.669-.063 1.338-.098 2.007-.008.16-.03.32-.045.48-.069.75.086 1.456.382 2.146.469 1.09.843 2.211 1.143 3.363.134.513.405 1.001.672 1.467.158.276.385.535.741.616.144.033.275.122.417.202-.608-.005-1.136-.182-1.573-.657-.31-.336-.727-.57-1.054-.892-1.08-1.067-1.939-2.28-2.348-3.765-.23-.835-.181-1.694-.097-2.536.142-1.432.371-2.855.527-4.285.108-1.005.155-2.017.236-3.047Z"/><path fill="#C9AC95" d="M25.625 34.768c.263-.062.525-.124.81-.166.181.732.333 1.448.504 2.158.143.6.095.896.973.997.484.056.957.2 1.434.31.177.042.284.15.266.347-.235-.01-.472-.01-.706-.036-.175-.019-.344-.087-.52-.104-.404-.04-.583.218-.445.606.145.41.281.822.41 1.236.035.113.032.238.029.386-.226.205-.285.198-.466-.006-.059-.067-.136-.117-.205-.174l.003-.021c-.092-.211-.171-.413-.285-.593a3.381 3.381 0 0 0-.423-.552c-.15-.156-.359-.145-.471-.008-.48.584-1.107.983-1.765 1.316-.715.362-1.469.65-2.21.961-.105.045-.234.034-.352.05-.023-.29.194-.349.401-.432.574-.23 1.154-.45 1.71-.72.199-.095.335-.32.497-.51.425-.262.602-.71.887-1.072-.166.089-.315.2-.42.343-.306.42-.734.51-1.214.505-.298-.003-.596.039-.894.036-.18-.002-.387-.008-.418-.266.095-.194.279-.195.456-.21.394-.031.8-.015 1.178-.11.325-.08.64-.257.919-.45.146-.102.251-.317.297-.501.242-.96.211-1.92-.086-2.866-.023-.073-.071-.137-.123-.227a1.34 1.34 0 0 1 .23-.227Zm.167 3.924s-.003-.005 0 0Z"/><path fill="#C37829" d="M14.688 32.064c.041-.097.122-.176.13-.262.04-.386.149-.74.387-1.051.152-.199.297-.225.48-.049.174.168.317.367.493.533.567.536 1.13 1.076 1.72 1.587.301.262.654.467.985.695.054.038.116.064.175.096l.046-.049c-.074-.117-.153-.231-.22-.353-.198-.357-.401-.713-.578-1.08-.037-.077.029-.204.047-.307.107.035.235.044.314.111.197.168.385.35.551.548.335.399.783.509 1.27.54.255.016.509.043.785.066-.16.153-.316.287-.455.435-.423.452-.584 1.015-.638 1.61-.028.314-.004.632-.003.97a4.053 4.053 0 0 1-.558-.209.699.699 0 0 1-.238-.159c-.993-1.143-2.161-2.083-3.406-2.93-.312-.212-.668-.36-1.001-.54-.098-.054-.187-.124-.286-.202Z"/><path fill="#C9AC95" d="M16.185 42.139c.18-.228.407-.113.617-.078.467.078.93.182 1.4.25.483.069.851-.163 1.117-.541.844-1.204 1.559-2.472 1.878-3.927.047-.211.061-.43.115-.666.242-.006.46.001.676.022.219.022.26.145.19.343-.145.419-.272.844-.42 1.262-.209.584-.434 1.163-.645 1.746a27.35 27.35 0 0 0-.415 1.204c-.078.254.004.451.248.521.664.19 1.338.349 2.005.528.072.019.13.087.194.133-.444-.057-.907-.056-1.329-.186-.588-.18-1.056-.085-1.51.32-.365.325-.775.598-1.195.882-.33-.071-.381-.2-.176-.426.094-.104.222-.176.334-.262l-.06-.074c-.037.009-.078.009-.108.027-.359.215-.753.263-1.16.262-.728-.002-1.456-.01-2.183.005-.328.007-.655.08-.983.082-.113 0-.227-.124-.34-.191.058-.186.205-.23.377-.24.747-.047 1.495-.092 2.242-.145.142-.01.282-.059.46-.094.116-.042.195-.08.317-.137-.103-.054-.148-.09-.2-.102-.375-.086-.752-.167-1.128-.25-.152-.034-.342-.024-.318-.268Z"/><path fill="#E03A2C" d="M3.103 5.495c.443.114.843.312 1.182.62.448.407.909.805 1.324 1.244.186.196.275.483.412.746a.475.475 0 0 1-.06.157c-.029.031-.032.045-.028.06a.82.82 0 0 1-.875.46C4.43 8.696 3.89 8.42 3.424 8a1.258 1.258 0 0 1-.42-.923c-.01-.338.01-.677.026-1.04.015-.035.013-.042.004-.047-.001-.093-.003-.185.008-.312l.061-.183Z"/><path fill="#C37829" d="M25.625 34.749c-.081.088-.163.156-.247.24-.041.076-.096.13-.118.196-.29.853-.91 1.245-1.803 1.288.227-.342.398-.682.33-1.14-.094-.634.176-1.2.481-1.74.08-.141.182-.271.274-.407l.059.023c-.016.31-.038.618-.046.927-.002.079.04.159.063.239.08-.044.192-.066.237-.134.186-.28.356-.57.526-.862.123-.212.237-.43.359-.652.196.19.15.86-.115 2.022Z"/><path fill="#9F8C7A" d="M23.163 42.937c-.082-.047-.14-.115-.212-.134-.667-.179-1.34-.338-2.005-.528-.244-.07-.326-.267-.247-.521.125-.405.27-.805.414-1.204.211-.583.436-1.162.645-1.746.148-.418.275-.843.42-1.262.07-.198.03-.321-.19-.343-.216-.021-.433-.028-.673-.042-.052-.135-.082-.27-.124-.418.291-.093.576-.109.863.082.27.18.555.105.818-.062.074-.047.151-.089.244-.131-.377.817-.815 1.615-1.15 2.454-.335.838-.568 1.718-.845 2.58-.075.233-.001.383.236.471.66.245 1.312.509 2.023.567.222.018.267.168.272.306l-.489-.07ZM29.63 38.415c0-.198-.107-.306-.284-.347-.477-.11-.95-.255-1.434-.31-.878-.102-.83-.397-.973-.998-.17-.71-.323-1.426-.485-2.157.145-.053.292-.087.457-.117.137.81.246 1.616.375 2.42.053.324.2.558.59.617.572.086 1.135.236 1.7.366.094.022.176.092.268.13.077.031.16.051.241.07.166.04.334.073.35.359-.284-.344-.536-.195-.805-.033Z"/><path fill="#9F8C7A" d="M22.189 41.477c.135-.018.264-.007.37-.052.74-.31 1.494-.599 2.21-.96.657-.334 1.284-.733 1.764-1.317.112-.137.321-.148.471.008.16.165.3.356.423.552.114.18.193.382.286.593-.25-.229-.498-.477-.746-.725-.144-.144-.284-.148-.446-.015-.363.296-.703.64-1.11.856-.59.31-1.233.518-1.849.78a9.321 9.321 0 0 0-.736.364c-.206.11-.395.247-.656.182-.076-.019-.175.054-.277.09-.007-.195.098-.302.296-.356ZM14.415 43.375c.133.067.247.191.36.19.328 0 .655-.074.983-.08.727-.015 1.455-.008 2.182-.006.408 0 .802-.047 1.16-.262.031-.018.072-.018.109-.027l.06.074c-.112.086-.24.158-.334.262-.205.225-.154.355.159.426-.001.022-.015.04-.027.04-.352-.031-.555.143-.644.485-.078-.299.002-.546.208-.791-.434-.02-.833-.035-1.232-.058-.9-.052-1.796-.009-2.689.115a.528.528 0 0 1-.262-.02c-.245-.101-.457-.076-.649.143.062-.319.257-.472.616-.49Z"/><path fill="#CC7F66" d="M2.244 4.385c.226.154.45.312.65.494.068.061.079.186.095.301-.655.085-1.22.346-1.774.64-.017.01-.006.073-.009.111l-.35.18-.066-.075 1.454-1.65Z"/><path fill="#9F8C7A" d="M22.735 39.355c.05.262.258.268.438.27.298.003.596-.039.894-.036.48.005.908-.086 1.214-.505.105-.143.254-.254.42-.343-.285.362-.462.81-.898 1.062-.295.046-.581.099-.868.107-.338.01-.678-.014-1.017-.036-.085-.006-.205-.04-.244-.1-.125-.199-.252-.231-.429-.04.055-.297.134-.357.49-.379Z"/><path fill="#A7652B" d="M1.224 5.927c-.015-.034-.026-.097-.009-.106.553-.295 1.119-.556 1.774-.622.052.085.082.17.114.276-.016.07-.032.12-.053.181-.003-.14-.075-.214-.227-.173-.528.144-1.054.293-1.599.444Z"/><path fill="#9F8C7A" d="M16.166 42.138c-.005.245.185.235.337.269.377.083.753.164 1.128.25.052.011.097.048.2.102a6.569 6.569 0 0 1-.297.135c-.25-.076-.48-.164-.717-.228-.357-.096-.753-.104-.97-.528h.32Z"/><path fill="#999" d="M27.707 40.34c.071.04.148.09.207.156.18.204.24.211.464.027.03.22.044.448.056.633-.144-.115-.31-.221-.439-.36-.117-.127-.195-.291-.288-.456Z"/><path fill="#CC7F66" d="M2.215 3.766c-.303.174-.05.346.016.534a.635.635 0 0 1-.18-.136c-.184-.22-.138-.341.164-.398ZM2.585 2.276c-.001.134-.017.275-.047.43.002-.133.017-.278.047-.43ZM2.603 3.082c.022.113.042.249.052.396a3.534 3.534 0 0 1-.052-.396ZM2.595 3.591c-.072.056-.16.118-.26.168.075-.062.16-.112.26-.168ZM2.992 2.22c-.092.012-.194.011-.317.004.087-.01.197-.013.317-.003Z"/><path fill="#9F8C7A" d="M27.158 34.44c.068-.02.148-.032.24-.035-.068.02-.148.03-.24.035Z"/><path fill="#CC7F66" d="M2.548 2.876a.39.39 0 0 1 .059.143.39.39 0 0 1-.059-.143Z"/><path fill="#9F8C7A" d="M20.835 36.73c.009-.012.02-.013.037-.006a.041.041 0 0 1-.037.007ZM23.26 36.538c-.002-.005.003-.01.005-.01s-.003.014-.005.01Z"/><path fill="#ED5041" d="M5.944 8.318c-.015-.01-.012-.025.008-.043.019.01.017.025-.008.043Z"/><path fill="#A7652B" d="M3.029 5.996c.014 0 .016.007.008.018-.004.002-.013-.012-.008-.018Z"/><path fill="#CC7F66" d="M2.64 2.222c.005.014-.002.03-.023.046-.006-.015.002-.029.023-.046Z"/><path fill="#C57826" d="M18 19.678c-.932-.296-1.846-.583-2.76-.875-.082-.026-.152-.09-.23-.131-.153-.083-.317-.17-.252-.38.048-.153.376-.28.545-.23.471.144.938.303 1.412.436.644.18 1.287.37 1.94.506.771.16 1.553.268 2.331.392a4.7 4.7 0 0 0 .626.052c.882.02 1.764.061 2.645.043a13.05 13.05 0 0 0 2.913-.407c1.124-.282 2.263-.501 3.4-.734.305-.063.621-.083.934-.11.06-.005.124.05.186.078-.029.062-.04.15-.089.18-.225.143-.451.288-.693.396-.914.41-1.879.615-2.874.708-.817.077-1.63.2-2.446.28-.706.068-1.414.113-2.122.152-.758.042-1.518.105-2.275.087-1.07-.025-2.14-.11-3.19-.442Z"/><path fill="#C57826" d="M33.343 18.089c-.102.183-.221.357-.356.534-.482.371-.926.772-1.418 1.104-.76.513-1.615.843-2.497 1.081-.745.201-1.497.396-2.259.51-.56.082-1.139.032-1.71.03-.069 0-.199-.083-.196-.117a.482.482 0 0 1 .121-.262c.27-.295.657-.28 1.007-.342 1.31-.228 2.617-.48 3.877-.907.597-.203 1.159-.52 1.72-.815.47-.247.912-.544 1.376-.803.084-.047.21-.017.335-.013ZM21.44 17.068c.702.032 1.38.057 2.055.103.096.007.186.115.278.176-.072.089-.128.222-.221.258-.231.087-.479.177-.721.183-.936.022-1.873.018-2.81.012-1.14-.007-2.236-.28-3.317-.602-.356-.107-.75-.215-1.02-.58.272-.238.597-.257.905-.213 1.098.158 2.191.354 3.29.514.509.075 1.025.101 1.562.15ZM24.21 21.009c-.678.197-1.35.226-2.029.159-.408-.041-.82-.063-1.227-.11-.64-.075-1.28-.148-1.914-.253-.651-.107-1.301-.232-1.94-.392-.284-.07-.545-.24-.806-.382-.065-.035-.139-.15-.126-.21.014-.06.125-.127.202-.139.156-.024.325-.046.477-.013 1.04.222 2.072.48 3.115.683.527.102 1.072.12 1.609.168.273.024.548.056.82.043.7-.033 1.4-.094 2.1-.13.143-.008.29.042.435.066-.098.115-.18.252-.298.338-.113.084-.264.115-.418.172ZM18.867 15.268c.574.06 1.125.126 1.678.177.353.033.708.042 1.062.067.402.029.803.059 1.204.098a.82.82 0 0 1 .323.093c.096.056.24.164.231.232-.013.101-.125.231-.226.27a1.765 1.765 0 0 1-.611.126 21.15 21.15 0 0 1-1.476-.053 27.98 27.98 0 0 1-1.442-.136c-.95-.113-1.913-.158-2.814-.532-.045-.019-.092-.033-.134-.057-.167-.099-.274-.347-.163-.475.068-.077.243-.102.363-.087.662.081 1.322.182 2.005.277Z"/><path fill="#C57826" d="M20.849 18.771c-.67-.08-1.32-.133-1.96-.247a41.53 41.53 0 0 1-2.527-.536c-.373-.091-.731-.254-1.085-.41-.138-.06-.245-.191-.366-.29l.02-.083c.094-.012.194-.053.28-.034.503.11 1 .242 1.502.351.755.164 1.51.332 2.27.466 1.309.233 2.632.267 3.957.25.07-.001.16.007.208.047.09.076.158.179.235.27-.096.072-.19.203-.288.206-.74.018-1.482.01-2.246.01ZM27.707 17.941c.393-.069.776-.102 1.135-.212.461-.14.904-.34 1.354-.515.296-.114.596-.153.893-.011.066.032.17.11.162.147-.018.083-.076.192-.148.226-.32.152-.64.327-.98.41a57.509 57.509 0 0 1-3.041.67c-.67.127-1.354.194-2.035.25-.275.022-.559-.052-.838-.09a.228.228 0 0 1-.143-.076c-.066-.093-.114-.199-.17-.3.11-.052.216-.138.33-.15.689-.075 1.379-.13 2.068-.198.464-.045.928-.1 1.413-.15ZM20.148 22.352c-.587-.167-1.145-.351-1.674-.61l.009-.095c.102-.019.206-.061.306-.052.504.046 1.007.105 1.51.16.536.058 1.07.134 1.606.173.86.063 1.721.096 2.58.156.156.011.316.073.457.146.205.105.21.293-.005.376-.29.112-.597.221-.902.24-.93.055-1.85-.049-2.757-.26-.368-.086-.74-.152-1.13-.234ZM28.531 17.454c-.596.102-1.171.22-1.752.29-.415.05-.838.054-1.256.047-.28-.005-.558-.068-.837-.1-.292-.032-.465-.233-.691-.495.3-.048.552-.096.806-.125a36.4 36.4 0 0 1 1.44-.143c.796-.059 1.592-.104 2.388-.151.079-.005.172-.01.237.025.096.052.232.133.242.215.01.082-.098.203-.184.265-.109.078-.248.113-.393.172ZM23.743 16.126c-.175-.222-.151-.356.087-.424.238-.067.485-.128.73-.137.83-.031 1.663-.057 2.494-.044.347.006.697.1 1.038.186.099.025.169.164.252.25-.088.079-.164.2-.266.228a3.6 3.6 0 0 1-.804.145c-.814.033-1.63.066-2.445.044-.358-.01-.714-.155-1.086-.248Z"/><path fill="#C37829" d="M31.06 20.963c.005.012-.004.024-.029.036-.007-.012.003-.024.028-.036Z"/><path fill="#CC7F66" d="M6.882 4.156c-.069.048-.155.058-.196.106-.273.315-.61.27-.955.185-.024-.006-.048-.01-.07-.02-.102-.046-.203-.094-.304-.141l.276-.197c.038-.028.078-.054.13-.09.248-.228.51-.344.844-.269.235.052.332.17.275.426ZM5.101 3.16c.037-.249.169-.359.402-.344.18.011.284.12.314.284.034.187-.048.333-.225.412-.223.1-.427-.041-.49-.353Z"/><path fill="#F79A1E" d="M15.602 15.076a2.307 2.307 0 0 1-.077-.034l.016-.032c.018.013.036.026.058.051.005.012.004.014.003.015Z"/><path fill="#9F8C7A" d="M25.79 38.69c-.002-.004.003.003 0 0Z"/></svg>